<?xml version="1.0" standalone="no"?>
<!DOCTYPE svg PUBLIC "-//W3C//DTD SVG 20010904//EN"
 "http://www.w3.org/TR/2001/REC-SVG-20010904/DTD/svg10.dtd">
<svg version="1.0" xmlns="http://www.w3.org/2000/svg"
 width="512.000000pt" height="512.000000pt" viewBox="0 0 512.000000 512.000000"
 preserveAspectRatio="xMidYMid meet">

<g transform="translate(0.000000,512.000000) scale(0.100000,-0.100000)"
fill="#000000" stroke="none">
<path d="M4677 4817 c-1446 -1270 -1818 -1594 -1932 -1682 -139 -107 -396
-290 -549 -391 -49 -33 -94 -67 -100 -76 -16 -26 4 -71 37 -82 24 -9 44 2 214
116 203 136 430 301 558 407 63 51 752 654 1537 1342 36 33 69 59 72 59 3 0
-245 -334 -550 -742 l-556 -743 -107 -1 c-79 -1 -123 -6 -172 -23 -131 -42
-257 -152 -336 -293 -33 -60 -43 -69 -78 -79 -134 -37 -241 -139 -286 -273
-16 -46 -21 -51 -66 -67 -155 -53 -303 -183 -303 -268 0 -35 37 -66 67 -57 10
3 48 39 84 78 41 46 86 83 119 100 30 15 55 26 57 24 2 -2 -5 -31 -16 -66 -26
-83 -10 -119 50 -120 49 0 73 54 103 232 18 103 41 160 86 212 41 46 77 65
160 86 l65 16 46 85 c64 116 152 209 237 251 63 31 73 33 172 32 78 0 117 -5
150 -19 37 -15 74 -18 205 -19 160 -1 160 -1 227 -34 122 -60 204 -184 253
-382 38 -151 62 -221 95 -274 36 -56 37 -64 8 -68 -117 -18 -325 102 -419 241
-19 28 -37 51 -40 51 -14 0 -62 -128 -78 -206 l-17 -84 -22 53 c-12 29 -47 89
-77 132 -30 44 -69 109 -85 144 -66 139 -168 251 -228 251 -64 0 -184 -145
-221 -268 -50 -164 -81 -282 -91 -341 -14 -80 -74 -201 -99 -201 -13 0 -64
110 -86 187 l-22 74 -39 -43 c-95 -103 -141 -193 -203 -402 -42 -141 -106
-315 -120 -329 -17 -18 -77 147 -93 258 -3 14 -18 -4 -55 -65 -77 -127 -257
-359 -269 -347 -2 2 3 66 12 143 8 76 18 243 21 371 7 269 5 276 -69 288 -267
40 -492 124 -706 264 -60 39 -116 71 -125 71 -9 0 -53 -25 -98 -55 -189 -129
-491 -248 -711 -280 -86 -13 -83 -4 -82 -252 2 -233 19 -439 60 -703 44 -287
114 -444 272 -611 132 -140 288 -243 472 -314 l95 -37 55 17 c30 10 95 37 145
62 242 121 435 310 536 527 37 79 50 97 95 128 35 25 58 35 72 31 12 -3 32 -3
45 1 32 8 118 125 168 229 l42 88 36 -34 c73 -70 193 -126 243 -114 36 9 42
33 39 153 -2 99 -1 105 54 275 32 96 59 176 61 178 2 2 21 -12 43 -32 67 -61
80 -59 184 21 99 75 161 168 190 282 13 49 17 55 43 58 37 5 64 29 64 59 0 23
-7 31 -65 77 -29 24 -30 27 -28 100 3 130 39 237 104 311 30 34 33 35 50 19
51 -46 110 -170 128 -271 l9 -44 -25 23 c-14 13 -36 43 -51 68 -14 25 -32 53
-40 63 -31 36 -102 9 -102 -39 1 -35 37 -99 99 -172 33 -41 61 -77 61 -81 0
-4 -30 -34 -66 -66 -98 -86 -125 -165 -88 -253 19 -47 62 -92 87 -92 10 0 38
12 63 26 115 68 251 0 262 -130 5 -61 -22 -125 -63 -152 -31 -20 -41 -55 -25
-85 7 -12 46 -60 88 -107 l75 -84 -18 -57 c-9 -31 -26 -73 -37 -94 l-19 -38
-29 25 c-16 13 -83 57 -147 97 -266 164 -335 243 -363 418 -17 104 -61 140
-111 90 -18 -18 -20 -28 -14 -72 13 -100 34 -189 58 -240 28 -60 102 -146 153
-178 l35 -21 -24 -27 c-35 -39 -88 -115 -147 -216 -65 -110 -124 -195 -207
-298 -79 -99 -83 -140 -15 -153 28 -6 37 -2 69 32 58 62 175 223 243 335 75
126 138 215 177 251 l29 28 63 -42 c35 -23 88 -64 118 -92 l55 -51 -53 -79
c-150 -222 -367 -386 -595 -451 -123 -34 -204 -42 -379 -33 -248 12 -451 80
-588 198 -62 53 -93 62 -120 32 -42 -46 -14 -91 107 -174 191 -131 403 -184
708 -176 144 4 190 10 270 31 295 78 525 252 720 545 60 90 125 213 151 285 6
17 10 15 39 -14 68 -68 152 -77 271 -29 41 16 98 32 128 36 l54 6 18 -63 c35
-128 40 -169 27 -213 -41 -138 -171 -204 -345 -176 -79 13 -97 26 -130 91 -13
25 -30 51 -39 58 -24 20 -68 9 -85 -21 -15 -25 -14 -31 11 -81 56 -115 111
-151 249 -167 207 -24 357 49 432 208 40 87 41 157 3 307 -16 61 -28 133 -27
161 1 33 -11 88 -33 160 -19 60 -40 130 -45 155 -14 60 -43 427 -36 440 4 5
13 9 21 9 23 0 143 50 187 77 47 30 51 71 10 106 -151 124 -196 197 -242 389
-17 70 -42 155 -57 190 -105 251 -290 363 -567 344 -83 -6 -99 -5 -94 7 3 7
334 453 736 991 402 537 731 986 731 997 0 25 -34 59 -60 59 -12 0 -118 -86
-263 -213z m-3777 -3032 l0 -295 -284 0 -283 0 -7 92 c-3 50 -6 139 -6 199 l0
107 78 16 c115 25 316 92 407 136 44 21 83 39 88 39 4 1 7 -132 7 -294z m745
161 c66 -19 146 -40 178 -46 l57 -11 0 -78 c0 -43 -3 -133 -7 -199 l-6 -122
-284 0 -283 0 0 294 0 294 113 -48 c61 -27 166 -65 232 -84z m1894 -49 c50
-54 152 -108 249 -133 83 -20 122 -16 141 17 13 23 11 31 -13 93 -29 71 -28
90 1 64 32 -28 123 -69 177 -80 l54 -10 5 -52 c4 -28 11 -112 17 -186 13 -166
22 -215 66 -358 19 -62 32 -117 29 -122 -16 -26 -35 -4 -65 78 -68 186 -80
233 -98 376 -15 119 -22 152 -37 162 -43 31 -95 3 -95 -50 1 -101 42 -307 90
-444 27 -80 47 -149 43 -152 -18 -15 -114 -50 -137 -50 -33 0 -72 35 -196 175
l-101 114 24 38 c38 59 50 108 45 189 -4 61 -11 83 -39 129 -71 117 -196 167
-329 131 -30 -8 -56 -13 -58 -11 -2 1 0 15 4 29 4 16 35 50 78 86 71 59 71 59
86 37 8 -12 35 -43 59 -70z m-2644 -820 c3 -6 4 -182 3 -390 l-3 -377 -80 46
c-156 91 -296 257 -368 436 -24 60 -67 242 -67 282 0 14 28 16 255 16 196 0
257 -3 260 -13z m925 1 c0 -47 -49 -199 -90 -284 -60 -125 -141 -234 -251
-339 -80 -76 -214 -175 -238 -175 -7 0 -11 20 -11 50 0 39 4 52 18 57 53 19
52 10 52 370 l0 333 260 0 c201 0 260 -3 260 -12z"/>
<path d="M1019 4474 c-28 -8 -62 -30 -85 -53 l-39 -39 -48 25 c-102 51 -213
51 -318 -3 -90 -45 -159 -154 -159 -250 0 -28 -5 -35 -45 -54 -56 -27 -109
-88 -129 -148 -33 -97 -13 -227 48 -307 14 -18 26 -37 26 -41 0 -3 -16 -24
-35 -45 -128 -142 -150 -380 -52 -563 36 -68 121 -161 162 -176 33 -12 82 -13
89 -1 4 5 34 0 69 -11 l64 -21 -67 -66 c-49 -48 -78 -88 -106 -146 -36 -74
-39 -87 -40 -170 -1 -50 -9 -116 -18 -148 -32 -110 -24 -155 30 -171 36 -11
63 22 75 89 6 33 13 63 15 67 3 4 37 -9 78 -28 94 -45 140 -53 166 -29 39 35
20 87 -37 106 -56 18 -167 75 -183 94 -7 8 -13 28 -12 44 2 68 105 221 173
256 46 24 95 18 184 -24 147 -69 248 -151 320 -259 32 -49 64 -61 100 -38 39
26 33 67 -20 135 -82 108 -214 210 -346 269 l-61 28 50 27 c59 32 69 33 77 7
11 -36 96 -108 168 -144 123 -60 329 -103 362 -76 9 8 15 31 16 59 1 25 4 57
8 70 6 24 7 24 38 -12 118 -135 195 -307 228 -510 8 -49 20 -96 26 -104 8 -8
26 -13 48 -11 59 5 64 29 36 194 l-7 42 51 27 c104 57 135 153 87 278 -67 179
-209 303 -400 352 -32 8 -61 16 -63 19 -2 2 13 14 34 26 l38 23 79 -21 c51
-14 86 -18 100 -12 29 11 99 118 131 201 44 112 58 207 52 358 -2 75 -10 151
-17 169 -13 34 -48 56 -73 46 -9 -3 -60 50 -138 141 -69 81 -134 148 -147 151
-13 4 -32 -1 -46 -10 -23 -14 -28 -14 -68 4 -24 10 -65 24 -91 31 -58 14 -71
36 -85 135 -16 117 -66 189 -151 219 -53 18 -81 18 -142 -1z m322 -463 c31 -5
73 -16 93 -25 l38 -16 -34 -46 c-18 -25 -56 -72 -85 -104 -55 -60 -64 -90 -40
-124 8 -11 26 -18 42 -18 33 0 95 60 186 180 28 37 54 67 58 67 5 0 43 -40 85
-90 l77 -90 -59 -27 c-140 -64 -408 -123 -602 -135 -112 -6 -140 -19 -140 -65
0 -66 245 -271 428 -357 39 -19 72 -38 72 -42 0 -4 -26 -13 -57 -19 -83 -18
-253 -8 -328 19 -215 76 -321 277 -271 511 22 104 60 175 131 246 69 70 140
110 229 129 75 16 105 17 177 6z m520 -408 c2 -116 -4 -180 -21 -248 -18 -71
-70 -188 -89 -199 -14 -9 -203 60 -305 111 -123 62 -286 173 -286 195 0 4 13
8 29 8 115 0 424 77 576 144 44 19 83 35 88 35 4 1 7 -20 8 -46z m-618 -630
l127 -6 0 -118 0 -118 -72 20 c-86 24 -168 62 -208 96 -25 20 -30 32 -30 68 0
61 8 78 34 70 11 -3 78 -9 149 -12z m444 -139 c83 -40 148 -106 188 -191 39
-81 42 -114 14 -146 -42 -47 -56 -40 -93 46 -42 95 -82 158 -165 261 -71 88
-68 90 56 30z"/>
<path d="M1683 3488 c-13 -17 -53 -150 -53 -177 0 -27 42 -55 70 -46 26 8 46
39 65 101 19 63 19 99 -1 118 -19 19 -68 21 -81 4z"/>
<path d="M1503 3478 c-13 -17 -33 -76 -33 -99 0 -45 71 -66 103 -31 22 24 32
94 18 121 -13 24 -72 30 -88 9z"/>
<path d="M3425 1624 c-21 -21 -16 -90 9 -129 34 -52 126 -16 111 43 -15 64
-39 97 -71 100 -20 2 -38 -3 -49 -14z"/>
<path d="M4079 826 c-48 -24 -40 -91 14 -110 22 -8 31 -6 52 14 29 27 31 47
10 77 -18 26 -47 34 -76 19z"/>
</g>
</svg>
